<?xml version="1.0" standalone="no"?>
<!DOCTYPE svg PUBLIC "-//W3C//DTD SVG 20010904//EN"
 "http://www.w3.org/TR/2001/REC-SVG-20010904/DTD/svg10.dtd">
<svg version="1.0" xmlns="http://www.w3.org/2000/svg"
 width="183.000000pt" height="185.000000pt" viewBox="0 0 183.000000 185.000000"
 preserveAspectRatio="xMidYMid meet">

<g transform="translate(0.000000,185.000000) scale(0.100000,-0.100000)"
fill="#eb6e4b" stroke="none">
<path d="M0 925 l0 -925 915 0 915 0 -2 923 -3 922 -912 3 -913 2 0 -925z
m1081 820 c289 -59 531 -282 624 -575 40 -124 46 -302 16 -433 -38 -163 -117
-302 -237 -418 -115 -110 -205 -162 -351 -204 -533 -155 -1073 249 -1073 804
0 322 171 605 456 752 175 90 363 115 565 74z"/>
<path d="M688 1443 c-17 -44 -21 -137 -8 -179 7 -22 25 -57 40 -80 l27 -41
-41 -66 -41 -67 -138 0 c-133 0 -171 -7 -189 -34 -4 -6 -8 -110 -8 -232 0
-201 2 -222 18 -237 10 -10 30 -17 43 -17 19 0 29 -8 40 -32 43 -97 175 -97
218 0 l15 32 233 0 233 0 14 -34 c39 -95 170 -98 213 -5 14 30 24 39 45 39 17
0 34 10 48 27 18 23 20 38 18 112 l-3 85 -75 42 c-67 38 -83 53 -153 148 l-79
106 -144 0 -144 0 0 33 0 32 63 -3 c68 -4 137 16 137 40 0 7 -27 40 -60 73
l-60 60 21 34 c11 18 22 31 25 28 10 -10 64 15 75 35 18 34 14 77 -11 103 -39
42 -107 27 -134 -29 -8 -17 -29 -39 -46 -50 l-32 -18 -62 61 c-34 33 -67 61
-74 61 -7 0 -18 -12 -24 -27z m360 -50 c4 -27 -25 -55 -51 -51 -24 3 -48 43
-40 65 15 40 85 29 91 -14z m-28 -274 c0 -12 -67 -20 -109 -13 -113 18 -203
120 -204 233 0 32 3 63 8 70 5 9 53 -32 156 -135 82 -82 149 -152 149 -155z
m-80 216 c11 -13 11 -20 0 -41 l-14 -24 -28 27 -28 27 22 13 c30 16 33 16 48
-2z m-127 -234 c22 -12 27 -21 27 -53 l0 -38 -65 0 c-36 0 -65 2 -65 4 0 11
64 106 69 103 3 -1 18 -9 34 -16z m406 -232 c41 -56 85 -106 97 -111 19 -9 24
-20 26 -67 l3 -56 43 -3 42 -3 0 -49 c0 -34 -4 -50 -16 -54 -28 -11 -44 -6
-44 13 0 26 -56 81 -83 83 -76 5 -116 -14 -142 -68 l-16 -34 -232 0 -232 1
-18 38 c-20 44 -59 65 -114 63 -43 -2 -98 -41 -107 -77 -7 -27 -34 -33 -54
-13 -13 13 -18 419 -5 431 3 4 180 7 392 7 l386 -1 74 -100z m195 -165 c25
-10 19 -34 -9 -34 -18 0 -25 5 -25 20 0 21 8 24 34 14z m-821 -134 c30 -24 40
-60 27 -96 -34 -87 -160 -64 -163 30 -2 71 79 111 136 66z m721 -6 c34 -35 35
-82 1 -118 -52 -56 -145 -19 -145 59 0 77 89 114 144 59z"/>
<path d="M392 848 l3 -93 217 -3 218 -2 5 23 c3 12 5 54 3 92 l-3 70 -223 3
-223 2 3 -92z m408 2 l0 -60 -185 0 -185 0 0 60 0 60 185 0 185 0 0 -60z"/>
<path d="M870 845 l0 -95 185 0 c164 0 185 2 185 16 0 9 -26 52 -57 95 l-58
78 -127 1 -128 0 0 -95z m269 10 c22 -30 41 -57 41 -60 0 -3 -63 -5 -140 -5
l-140 0 0 60 0 60 99 0 99 0 41 -55z"/>
<path d="M516 537 c-38 -27 2 -95 42 -71 21 14 28 50 12 70 -15 17 -31 18 -54
1z"/>
<path d="M1226 534 c-39 -38 5 -96 50 -66 21 13 25 49 9 66 -21 20 -39 20 -59
0z"/>
</g>
</svg>
